# xmcd CD database file
#
# Track frame offsets:
#	150
#	22772
#	39720
#	57149
#	73426
#	89954
#	109908
#	122894
#	144134
#
# Disc length: 2115 seconds
#
# Revision: 0
# Processed by: cddbd v1.5.2PL0 Copyright (c) Steve Scherf et al.
# Submitted via: CDex 2.18
#
DISCID=82084109
DTITLE=Smokin' Ade Wakelin - Goin' down that road
DYEAR=2010
DGENRE=Blues
TTITLE0=Dirty Girl
TTITLE1=Motor Head Baby
TTITLE2=Goin' down that road
TTITLE3=Boom Boom - Dimples
TTITLE4=When it all comes down
TTITLE5=Cocaine
TTITLE6=Kinky woman
TTITLE7=The ironic twist
TTITLE8=Pleasure is my business
EXTD=YEAR: 2010
EXTT0=
EXTT1=
EXTT2=
EXTT3=
EXTT4=
EXTT5=
EXTT6=
EXTT7=
EXTT8=
PLAYORDER=
